# Blender v2.79 (sub 0) OBJ File: 'corner1.blend'
# www.blender.org
mtllib corner1.mtl
o Corner1
v 1.000100 0.000000 -1.000100
v -1.000100 0.000000 1.000100
v -1.000100 0.000000 -1.000100
v 1.000100 2.000000 -1.000099
v -1.000100 2.000000 1.000100
v -1.000100 2.000000 -1.000100
vt 1.000000 1.000000
vt 0.000000 1.000000
vt 0.000000 0.000000
vt 1.000000 0.000000
vt 0.000000 0.000000
vt 1.000000 0.000000
vt 1.000000 1.000000
vt 0.000000 1.000000
vn -1.0000 -0.0000 -0.0000
vn 0.0000 0.0000 -1.0000
usemtl (null)
s off
f 2/1/1 5/2/1 6/3/1 3/4/1
f 4/5/2 1/6/2 3/7/2 6/8/2
